PathFileType	4	(X/Y/Z)	70_2_35_p0_0-330_filt_butterworth.trc
DataRate	CameraRate	NumFrames	NumMarkers	Units	OrigDataRate	OrigDataStartFrame	OrigNumFrames
50.0	50.0	7	27	m	50.0	0	330
Frame#	Time	RHip			RKnee			RAnkle			RBigToe			RSmallToe			RHeel			LHip			LKnee			LAnkle			LBigToe			LSmallToe			LHeel			Neck			Head			Nose			RShoulder			RElbow			RWrist			RThumb			RIndex			RPinky			LShoulder			LElbow			LWrist			LThumb			LIndex			LPinky			
		X1	Y1	Z1	X2	Y2	Z2	X3	Y3	Z3	X4	Y4	Z4	X5	Y5	Z5	X6	Y6	Z6	X7	Y7	Z7	X8	Y8	Z8	X9	Y9	Z9	X10	Y10	Z10	X11	Y11	Z11	X12	Y12	Z12	X13	Y13	Z13	X14	Y14	Z14	X15	Y15	Z15	X16	Y16	Z16	X17	Y17	Z17	X18	Y18	Z18	X19	Y19	Z19	X20	Y20	Z20	X21	Y21	Z21	X22	Y22	Z22	X23	Y23	Z23	X24	Y24	Z24	X25	Y25	Z25	X26	Y26	Z26	X27	Y27	Z27	
0	0.0	0.37635987991396846	0.5189490525436647	0.10026100485365304	0.3671338537742499	0.6852003748402619	0.4984045141319645	0.3693524592128286	0.8016042601644771	0.9041558315586599	0.31986426097148785	0.64148460373995	1.008294493449183	0.38431866792136526	0.6287439818639335	0.9826959797356491	0.3512298198488525	0.9247648952615263	0.9789170150455798	0.13973088744137208	0.59361910896609	0.08519282421236299	0.1744069280792339	0.7184083027981676	0.5047935281144971	0.17322941496492122	0.8271184707463377	0.8995080073035495	0.17155385174928464	0.6578387293913754	0.9901461396697604	0.11586328469135365	0.717475042813211	0.9793091183595485	0.19635760719465914	0.8863645262278863	0.9443889159796441	0.24234806306751946	0.4067296881293969	-0.5474196986539532	0.21008458608537067	0.30080528093013637	-0.8008146448804991	0.1925249376330277	0.25172479761835803	-0.6322631707828998	0.4342086271168656	0.3994036034697384	-0.4584917065466425	0.5041735029327976	0.45378261286291344	-0.1669233600118621	0.48885438534150827	0.46101916077700944	0.1204145603353137	0.4225373676830224	0.4454143341747918	0.25125326579937307	0.4410299733747873	0.4358847257420648	0.2804442777326983	0.48219817831607886	0.47609658405318545	0.27603850796680873	0.08183058346569916	0.5139000282340628	-0.4630837898300072	0.02302854144593106	0.5761580938651424	-0.17585378619639588	0.021013502076805954	0.6068815191305035	0.10614512020180233	0.0597344581856228	0.5471555888915598	0.21373586195918715	0.03599995941414462	0.5622156295195608	0.22972109173786454	0.01751095114322651	0.64854576329692	0.2356297438705816
1	0.02	0.3775303437350608	0.50875051774824	0.09939692854294711	0.36727534497565106	0.6848784113608949	0.49499613414482446	0.36992586199076716	0.8025174648799313	0.9061660295026273	0.3170739227643917	0.6317236782738139	1.001336965746382	0.38466977175120515	0.628512139661239	0.9824513628984213	0.35609289092784613	0.9345735390552551	0.9862738625505241	0.14194062068425717	0.5812984455335748	0.08295301755266188	0.17661375902314524	0.7074477640364962	0.502748366237094	0.1764352110773151	0.8280938058413052	0.9000098189107597	0.1715491030657379	0.6576248605214589	0.9899450395786634	0.11637789412963309	0.7169479061616704	0.9767292193066939	0.19665718966174645	0.8878188102662653	0.9443943344931908	0.24235325545845443	0.40682704556935384	-0.5474103389799104	0.2101140085737033	0.30062552320306013	-0.801725339787509	0.19387146081981255	0.25193456619716526	-0.6323623571981111	0.43417336179137866	0.39938708634974646	-0.4585035593718962	0.5042229184207515	0.453843804339397	-0.16667033490308455	0.48876114988843444	0.46133224114322613	0.12177703561562786	0.4225434777564493	0.4467488973356045	0.2556190993562264	0.44095812219582503	0.44174798078977573	0.28434527379942154	0.48202419994533585	0.4752445894288435	0.2759572462991663	0.08183598411582291	0.5139352679049437	-0.4631212214534778	0.022960977892630737	0.5769598252165977	-0.1758097339692467	0.02109784311594356	0.6066231502942275	0.10592544855795828	0.06219869234496666	0.5471520445699843	0.21260811924306247	0.03851858097704097	0.5521046251195931	0.2299333992362735	0.017615537563215752	0.6483690458086968	0.23572135050348736
2	0.04	0.3781173509345904	0.5035748887442248	0.09899828911359065	0.36744186780853966	0.6845191656060522	0.4925651477422845	0.3705109849409692	0.8034870135761631	0.908249667485149	0.3151836208566245	0.6256533774303216	0.9977911792351888	0.38483579328141787	0.6284142088481741	0.9822907581756465	0.3585511057622471	0.9394830802164724	0.9901746948679736	0.14348194501653888	0.5726845714117077	0.08173354787040985	0.1777916284673652	0.7020641078573522	0.5017332011166677	0.1781196150645456	0.8283872202764145	0.8998279626615151	0.1715483627486461	0.6574879462914054	0.9898348466970135	0.11660543578628707	0.7166557908015037	0.9754462273145363	0.1968083278209806	0.8887499891677448	0.9443732771202866	0.24235721879818115	0.4069184783513762	-0.54735700150504	0.21004402528258773	0.30032704839533064	-0.8020832800314901	0.1953424481059112	0.2520186461046946	-0.6324887579656002	0.4341572016077926	0.3994153347056787	-0.458510868606993	0.504199980962725	0.4538090876081341	-0.1669073407452306	0.4887971465435825	0.4613167987162679	0.12167792805310951	0.422975582379523	0.44786257389221007	0.2591721062057832	0.4411316304902684	0.44427466309712177	0.2865572222199109	0.4823215233445267	0.4755589132153311	0.2759650701417161	0.08183338980125517	0.5139401866076762	-0.4631156055977941	0.02282101191408867	0.5769279142049595	-0.17595982328949705	0.021154301920253596	0.6062951548676636	0.1061392913716727	0.06348712400983925	0.546970075164297	0.21218304848910471	0.03985331303163491	0.546722941730759	0.22995793995388303	0.0176718236593533	0.6484610686626542	0.23573058607874636
3	0.06	0.3781769034864872	0.5029981245517308	0.09908301620950828	0.3675308237495969	0.6844779550463818	0.4922517887244332	0.37092179064248254	0.804191835829074	0.9097734145797403	0.31337145945765643	0.6215697968166215	0.997378436737324	0.3848045688782293	0.6283926951985653	0.9822113057080937	0.3588103269004135	0.9398406884088499	0.9912041309704989	0.1439926554809039	0.569916404371945	0.08190636076715965	0.1775519562494686	0.700370988393872	0.5014204740559384	0.17843874670497417	0.8277650741352894	0.8984385007977795	0.17153962311846915	0.6574461157061213	0.9898091522757944	0.11658304082451507	0.7166751157844196	0.9753650918303355	0.19675654811853285	0.889105820126992	0.9443217672947656	0.24232380722130728	0.40688978182293534	-0.5475979841800207	0.20985819106864076	0.3001040412879243	-0.8017644351353787	0.1963536441238397	0.25189465654316323	-0.6328764746499111	0.4341461988450065	0.39945346473209115	-0.4585173936220189	0.5041225028314521	0.4535887192124681	-0.1680053194701747	0.48890788618372905	0.4611208133227531	0.1208273349858788	0.42424982556448976	0.4484630051552101	0.26069794770268284	0.44228094784850747	0.4424195342689145	0.28627012324488865	0.48370350330798917	0.4784363106852547	0.276182627033545	0.08183903635557704	0.5139337502638457	-0.4630817954454675	0.022720428497545714	0.5763740151565859	-0.176113672837499	0.021173822147224935	0.606001444740675	0.107143150207335	0.06374163104203841	0.5467954203492832	0.21273838952905158	0.03999788211009668	0.5454162293704504	0.22991283084973763	0.0176697153740172	0.6488793820476259	0.23571958035495036
4	0.08	0.37809007057762345	0.5037632960574832	0.09930236144659292	0.36746633697998643	0.684674040988205	0.49427210770431607	0.3710568576683696	0.8044554420431839	0.9103782772799257	0.3110666672236907	0.6174533987791003	0.9978929711776233	0.38470925958099383	0.6283453888655581	0.9821838189549426	0.35842266518085597	0.9389105778156568	0.9913301464146832	0.14382025104436735	0.572031348458464	0.08266712032823947	0.1759774260193073	0.6970799491770935	0.5008581860331305	0.17835842536690844	0.8266710341472319	0.8963068932378915	0.17151741360941195	0.6574953849695888	0.9898296105885527	0.116509142914938	0.7169373348931225	0.975659975577203	0.1967005452850919	0.8892583337126713	0.9442990447439612	0.24220841929244358	0.40659077466846943	-0.5485697044372618	0.2097703042864125	0.3009054950357567	-0.8014736901549401	0.1965670134707996	0.2516895365235253	-0.6338145961284516	0.4341260754008237	0.39945526493863337	-0.45852012999749103	0.5040588972792684	0.4532748971121954	-0.16956897020434236	0.48895006514120043	0.4610133121171509	0.12047128472268671	0.4267295974864246	0.4483037167327896	0.26026891770843064	0.44419930798567187	0.43911069431491845	0.2840238421076156	0.48637620430010453	0.4841185771720173	0.27658512026076554	0.08186997053152671	0.5139453819398692	-0.4630544325341307	0.022766700290547677	0.5760827064198929	-0.17578519678510834	0.02114124593285506	0.6062767681122805	0.10869372981212841	0.06366989723824082	0.546806149462796	0.21356185170829434	0.03944570563703283	0.5445541354962729	0.230211819296681	0.01766091759522197	0.6484726567982529	0.23592598675012041
5	0.1	0.3780378360096009	0.5041378096518004	0.0990879666666831	0.3670332601498242	0.6846118072336276	0.4969433480712792	0.3709389289427594	0.8042220072878088	0.909916902867413	0.3092587075061507	0.6146456709508735	0.9981223538176575	0.3846812834642759	0.6282915449830548	0.9821779720416394	0.3582533819528435	0.9385125470740838	0.9912952229070349	0.1438368747436575	0.5752531360174867	0.08319769207407232	0.17386318770104775	0.691642802666492	0.4999271328246563	0.1783909917955206	0.8259641399320186	0.8947824178882741	0.171509180234932	0.6576317721444955	0.9898769317488749	0.11649443663943097	0.7172993741390659	0.9758194644089454	0.19721210605422798	0.8897996584404705	0.9444149395557326	0.242043075046895	0.4061146861422502	-0.5499809848212288	0.21049992193896513	0.3038508386040081	-0.8019554777138819	0.1963781565464301	0.25159251489275786	-0.634981827829184	0.4341022737247717	0.399424732058163	-0.45851639473291395	0.5040373751636267	0.4530749874371127	-0.17066106418453597	0.48885946438376265	0.46103087028999196	0.12065286767619272	0.43032499013784997	0.4474930943253716	0.25978385853060076	0.4459745597490321	0.43749237198762825	0.28148557267800883	0.49014179213831904	0.4912604300604844	0.27700515090924066	0.08190047199956052	0.5139731894257662	-0.46304167064420565	0.02289542640864803	0.5762984751973231	-0.17487081749740493	0.02113026190475634	0.6075444177200855	0.11028558953945236	0.06359985828946593	0.5470623316599026	0.21400810544045695	0.03862795875487391	0.5427330466084472	0.23229051757558788	0.017736154501619306	0.6447162239697164	0.23646892741789885
6	0.12	0.37799173031186106	0.5041305118954976	0.09797595266690486	0.36587860316411513	0.6844064794459074	0.4984021336707428	0.3705536041300025	0.8031553192725659	0.9078101075683306	0.30859985391010764	0.6138644927469857	0.9980246810697544	0.38469677058800106	0.6282342692146046	0.9821638726120168	0.35834295394375215	0.9385861206989127	0.9912219421099049	0.14375699641699596	0.5769903717487794	0.08355758900286189	0.17243095667492886	0.6876127427119776	0.4992230303139852	0.17850384868974267	0.8261322288542443	0.8948120729705787	0.17154962084768574	0.6578023741955717	0.9899247012404755	0.1165051823377403	0.7176902460244303	0.9757476450537221	0.19871125813271565	0.8910036467825231	0.9444566390088799	0.24192196672868135	0.40577227948163047	-0.5509715445569932	0.21255644006573243	0.30813754035624263	-0.8034553992442259	0.19622217257937904	0.25159382258560903	-0.6357153747669629	0.43408107995262724	0.399394348928528	-0.4585162418643647	0.5040378689627011	0.453049167039137	-0.17096153612583503	0.48871488102178273	0.46108958825811325	0.12056552687003907	0.4342136187460446	0.4458024225215335	0.2604182264290841	0.4476895988195213	0.4377934835909649	0.2801202120818522	0.49449160425580974	0.49775553925152216	0.2773167606348627	0.08188965194591263	0.5140092800067169	-0.46303223847210206	0.022683766272177018	0.5767385362095806	-0.17419608311793322	0.021574182234297738	0.6082456269197887	0.11187384335833575	0.06356767877414175	0.5473589706721502	0.21447797903204308	0.03807651557680091	0.5400811715591722	0.23695741195996228	0.01786496875116303	0.6366616788312139	0.23698998766885937
